<?xml version="1.0" standalone="yes"?>
<svg xmlns="http://www.w3.org/2000/svg" width="1026" height="1026">
<path style="fill:#ffffff; stroke:none;" d="M0 0L0 1026L1026 1026L1026 0L0 0z"/>
<path style="fill:#010101; stroke:none;" d="M38 38L38 304L304 304L304 38L38 38M418 38L418 76L380 76L380 114L456 114L456 76L532 76L532 114L494 114L494 152L456 152L456 190L570 190L570 228L532 228L532 266L494 266L494 304L456 304L456 266L418 266L418 342L380 342L380 380L342 380L342 342L228 342L228 380L190 380L190 418L114 418L114 342L38 342L38 418L114 418L114 456L38 456L38 494L266 494L266 532L304 532L304 570L266 570L266 608L228 608L228 532L38 532L38 684L76 684L76 570L152 570L152 608L114 608L114 684L152 684L152 646L190 646L190 684L228 684L228 646L266 646L266 684L304 684L304 646L342 646L342 608L380 608L380 570L418 570L418 456L456 456L456 418L494 418L494 380L456 380L456 418L418 418L418 342L532 342L532 380L570 380L570 418L532 418L532 456L494 456L494 494L456 494L456 570L494 570L494 608L418 608L418 646L380 646L380 684L342 684L342 798L380 798L380 836L418 836L418 950L380 950L380 912L342 912L342 988L418 988L418 950L456 950L456 988L494 988L494 912L532 912L532 874L608 874L608 912L570 912L570 950L532 950L532 988L570 988L570 950L608 950L608 912L646 912L646 988L760 988L760 950L836 950L836 988L874 988L874 950L836 950L836 912L912 912L912 874L950 874L950 988L988 988L988 836L950 836L950 798L988 798L988 722L950 722L950 760L912 760L912 798L874 798L874 836L912 836L912 874L836 874L836 912L722 912L722 874L760 874L760 836L836 836L836 646L874 646L874 684L912 684L912 608L950 608L950 646L988 646L988 570L950 570L950 532L988 532L988 418L950 418L950 380L874 380L874 342L798 342L798 380L760 380L760 418L722 418L722 380L608 380L608 342L684 342L684 38L646 38L646 304L608 304L608 266L570 266L570 228L608 228L608 38L570 38L570 76L532 76L532 38L418 38M722 38L722 304L988 304L988 38L722 38z"/>
<path style="fill:#ffffff; stroke:none;" d="M76 76L76 266L266 266L266 76L76 76M760 76L760 266L950 266L950 76L760 76z"/>
<path style="fill:#010101; stroke:none;" d="M114 114L114 228L228 228L228 114L114 114z"/>
<path style="fill:#ffffff; stroke:none;" d="M532 114L532 152L570 152L570 114L532 114z"/>
<path style="fill:#010101; stroke:none;" d="M798 114L798 228L912 228L912 114L798 114M342 152L342 228L418 228L418 190L380 190L380 152L342 152M342 266L342 304L380 304L380 266L342 266z"/>
<path style="fill:#ffffff; stroke:none;" d="M532 266L532 342L608 342L608 304L570 304L570 266L532 266M228 380L228 418L304 418L304 380L228 380M342 418L342 456L266 456L266 494L304 494L304 532L342 532L342 570L304 570L304 608L266 608L266 646L304 646L304 608L342 608L342 570L380 570L380 532L342 532L342 456L418 456L418 418L342 418M570 418L570 456L532 456L532 494L494 494L494 570L532 570L532 494L570 494L570 608L494 608L494 646L456 646L456 684L418 684L418 722L380 722L380 760L418 760L418 798L494 798L494 836L570 836L570 760L532 760L532 722L608 722L608 760L646 760L646 684L532 684L532 646L608 646L608 494L646 494L646 456L608 456L608 418L570 418M684 418L684 494L760 494L760 532L684 532L684 570L722 570L722 608L646 608L646 646L760 646L760 532L798 532L798 570L874 570L874 608L912 608L912 532L950 532L950 456L912 456L912 418L874 418L874 494L836 494L836 418L798 418L798 456L722 456L722 418L684 418M798 608L798 646L836 646L836 608L798 608z"/>
<path style="fill:#010101; stroke:none;" d="M456 684L456 722L418 722L418 760L494 760L494 798L532 798L532 760L494 760L494 722L532 722L532 684L456 684z"/>
<path style="fill:#ffffff; stroke:none;" d="M684 684L684 798L798 798L798 684L684 684z"/>
<path style="fill:#010101; stroke:none;" d="M38 722L38 988L304 988L304 722L38 722M722 722L722 760L760 760L760 722L722 722z"/>
<path style="fill:#ffffff; stroke:none;" d="M76 760L76 950L266 950L266 760L76 760z"/>
<path style="fill:#010101; stroke:none;" d="M114 798L114 912L228 912L228 798L114 798z"/>
<path style="fill:#ffffff; stroke:none;" d="M456 874L456 912L494 912L494 874L456 874M646 874L646 912L684 912L684 950L722 950L722 912L684 912L684 874L646 874z"/>
</svg>
